<?xml version="1.0" encoding="utf-8"?>
<!-- Generator: Adobe Illustrator 27.0.0, SVG Export Plug-In . SVG Version: 6.00 Build 0)  -->
<svg version="1.1" id="Layer_1" xmlns="http://www.w3.org/2000/svg" xmlns:xlink="http://www.w3.org/1999/xlink" x="0px" y="0px"
	 viewBox="0 0 18.17 36.19" style="enable-background:new 0 0 18.17 36.19;" xml:space="preserve">
<style type="text/css">
	.st0{fill:#2C2B7E;}
</style>
<path class="st0" d="M17.61,15.92l-0.84-0.91l-0.2-9c0-2.17-0.19-3.66-0.59-4.55C15.55,0.51,14.76,0,13.7,0
	c-0.65,0-1.54,0.26-2.12,1.52c-0.43,0.93-0.64,2.26-0.64,4.06l-0.08,8l-0.02,0.09c-0.14-0.14-0.29-0.25-0.46-0.35
	c-0.37-0.22-0.81-0.33-1.31-0.33c-0.67,0-1.23,0.19-1.69,0.58c-0.37,0.31-0.65,0.74-0.85,1.29c-0.32-0.1-0.61-0.15-0.87-0.15
	c-0.81,0-1.47,0.25-1.95,0.74c-0.41,0.42-0.69,1.01-0.84,1.77c-0.02,0-0.04,0-0.06,0c-1.27,0-2.78,0.64-2.78,3.72l0.04,0.78
	l0.33,0.83C0.14,23.48,0,24.37,0,25.18c0,0.3,0.04,0.75,0.11,1.39l0.03,0.11C0.9,28.31,2.21,30,4.06,31.71V35l0.22,0.09
	c1.74,0.73,3.5,1.11,5.24,1.11c1.97,0,3.84-0.41,5.57-1.22l0.21-0.1v-4.94c1.09-2.2,2.06-4.75,2.88-7.56l0.02-0.06L17.61,15.92z
	 M5.8,30.69c-1.28-1-2.37-2.12-3.26-3.34l0.31-0.13c0.78-0.33,1.5-0.83,2.14-1.5l0.56,1.25l0.34-0.2c1.11-0.65,1.9-1.37,2.37-2.14
	l0.51,1.18l0.34-0.17c1.05-0.54,1.84-1.18,2.38-1.91L11.51,24l1.81,0.07l-0.04-0.75c0-1.4,0.38-2.76,1.12-4.06l0.14-0.24l-0.2-0.19
	c-1.25-1.19-1.88-2.39-1.88-3.56c0-0.62,0.18-1.18,0.54-1.68l2.86,3.08l0.48,5.5c-0.38,1.29-1.33,3.82-2.82,7.53l-0.03,3.97
	c-2.46,0.87-4.94,0.89-7.54,0.08v-2.94L5.8,30.69z M2.49,27.28c-0.25-0.34-0.47-0.69-0.69-1.05c-0.06-0.4-0.08-0.58-0.08-0.66
	c0-0.02,0-0.05,0-0.08L2.49,27.28z M4.12,23.83c-0.24,0.36-0.49,0.67-0.75,0.91l-1.5-3.18l-0.02-0.79c0-1.24,0.46-1.6,0.96-1.7v1.79
	L4.12,23.83z M7.23,22.25c-0.13,0.87-0.44,1.54-0.92,2l-1.67-3.86L4.6,18.44c0-0.66,0.1-1.15,0.3-1.46
	c0.17-0.27,0.41-0.39,0.75-0.39c0.16,0,0.36,0.06,0.58,0.19l-0.02,3.09L7.23,22.25z M11.64,18.33c0.2,0.33,0.43,0.67,0.69,1.02
	c-0.09,0.18-0.17,0.36-0.25,0.54c-0.1-0.36-0.26-0.72-0.45-1.09L11.64,18.33z M9.84,19.4c0.21,0.31,0.37,0.63,0.48,0.94
	c0.1,0.3,0.15,0.6,0.15,0.88c0,0.86-0.3,1.52-0.91,2.01l-1.53-3.79L8,17.14c0-0.81,0.11-1.42,0.33-1.81
	C8.51,15,8.76,14.84,9.1,14.84c0.21,0,0.35,0.08,0.46,0.27c0.1,0.17,0.21,0.52,0.21,1.2v2.99L9.84,19.4z M12.97,10.94l-0.23,0.2
	l0.02-4.25c0-1.77,0.11-3.11,0.32-3.99c0.16-0.68,0.39-1.08,0.6-1.08c0.68,0,1.08,1.46,1.08,4.02l0.18,7.25L12.97,10.94z"/>
</svg>
