<?xml version="1.0" encoding="utf-8"?>
<!-- Generator: Adobe Illustrator 27.0.0, SVG Export Plug-In . SVG Version: 6.00 Build 0)  -->
<svg version="1.1" id="Layer_1" xmlns="http://www.w3.org/2000/svg" xmlns:xlink="http://www.w3.org/1999/xlink" x="0px" y="0px"
	 viewBox="0 0 98.22 57.93" style="enable-background:new 0 0 98.22 57.93;" xml:space="preserve">
<style type="text/css">
	.st0{fill:#1B0489;}
</style>
<path class="st0" d="M97.15,21.67c-5.32-6.53-21-9.3-34.84-6.31c0.19-2.58-0.28-4.75-2.45-5.82c-3.96-1.94-13.23-1.28-21.17,1.2
	l-2.46-7.96l0,0c0-0.01-0.01-0.03-0.01-0.04c-0.4-1.14-1.1-1.92-2.08-2.33c-2.22-0.92-5.88,0.06-13.06,3.49
	C12.39,8.07,1.93,6.36,1.83,6.34L0,6.03l0.66,1.73c0.11,0.3,2.83,7.32,10.57,13.04c-0.77,2.73-2.85,8.3-5.78,9.96l-2.29,1.29
	l2.54,0.66c0.33,0.09,7.74,1.94,14.87-0.9c0.11,0.74,0.22,1.46,0.31,2.14c0.64,4.7,1.18,8.39,6.03,8.2
	c3.07-0.13,8.41-1.76,14.07-3.49c1.66-0.51,3.69-1.13,5.81-1.73l0.18,4.89l0,0c0.01,2.66,1.37,4.01,2.51,4.67
	c3.15,1.84,8.92,0.91,14.69-2.35c2.18-1.23,5.31-1.88,8.73-1.93l-0.11,9.36c-0.23,1.32,0.14,2.68,1.04,3.75
	c1.02,1.21,3.16,2.59,7.62,2.59c0.27,0,0.55,0,0.84-0.02c7.32-0.27,11.71-4.34,11.73-8.12l0-0.95c-0.01-3.29-0.04-10.12,1.87-15.11
	C98.25,27.61,99.08,24.05,97.15,21.67z M18.08,13.52c-0.09-0.26-0.15-0.45-0.19-0.56c-0.11-0.77,0.08-1.12,0.24-1.31
	c0.99-1.19,4.75-1.25,8.72-1.32c3.86-0.07,6.92-1.22,8.51-3.17l1.32,4.27c-0.99,0.36-1.96,0.75-2.88,1.17
	c-6.38,2.93-12.23,3.13-14.71,1.81C18.6,14.17,18.28,13.86,18.08,13.52z M8.43,31.05c3.34-3.58,4.96-10.1,5.04-10.42l0.17-0.7
	l-0.59-0.42C7.67,15.7,4.72,11.1,3.44,8.68C7.04,9.01,14.94,9.21,22,5.83c4.24-2.03,9.37-4.25,11.32-3.44
	c0.28,0.12,0.64,0.34,0.89,1.06l0.01,0.02c0.26,0.74,0.15,1.47-0.33,2.15c-1.09,1.56-3.74,2.53-7.08,2.59
	c-5.05,0.09-8.71,0.15-10.32,2.08c-0.67,0.8-0.9,1.84-0.69,3.08c0.01,0.07,0.04,0.13,0.06,0.19l-0.01,0c0,0,0.02,0.05,0.04,0.11
	c0.06,0.23,0.13,0.46,0.23,0.67c0.53,1.6,1.82,5.76,3.65,13.25c0.17,0.71,0.31,1.39,0.44,2.06C15.81,31.54,11.1,31.38,8.43,31.05z
	 M40.36,36.64c-5.52,1.69-10.74,3.28-13.53,3.4c-2.82,0.14-3.16-1.44-3.83-6.37c-0.26-1.93-0.56-4.11-1.16-6.58
	c-1.14-4.71-2.07-8.09-2.75-10.38c3.69,1.28,9.86,0.46,15.6-2.18c8.74-4.01,20.4-4.96,24.24-3.08c2.11,1.04,1.22,5.03,0.37,8.88
	c-0.53,2.4-1.08,4.88-0.96,6.88c0.14,2.26,0.48,4.06,0.82,5.4C55.6,32.14,49.16,33.96,40.36,36.64z M59.98,35.18
	c0.04,0.09,0.07,0.16,0.1,0.21c0.31,1.01,0.3,1.76-0.04,2.22c-0.84,1.16-3.86,1.2-6.28,1.24c-1.72,0.02-3.47,0.05-4.76,0.46
	l-0.11-2.95C54.08,34.96,59.17,33.94,59.98,35.18z M76.96,42.44l1.52,5.68c-1.01,0.15-2.38,0.44-3.52,1l0.08-6.85
	C75.67,42.31,76.31,42.36,76.96,42.44z M82.22,55.79c-3.27,0.12-5.66-0.53-6.76-1.82c-0.7-0.82-0.65-1.66-0.56-2.08
	c0.18-0.87,2.78-1.63,4.99-1.78l1.29-0.08l-1.93-7.24c1.3,0.25,2.59,0.57,3.83,0.98c4.37,1.44,7.55,3.72,8.8,6.27
	C91.67,52.3,88.59,55.56,82.22,55.79z M93.91,32.98c-1.65,4.31-1.96,9.75-2,13.49c-1.88-1.94-4.66-3.58-8.16-4.73
	c-7.3-2.41-15.77-2.17-20.62,0.57c-4.97,2.81-10.14,3.78-12.58,2.37c-0.98-0.57-1.46-1.51-1.46-2.88c0-0.75,2.83-0.79,4.7-0.82
	c3.2-0.04,6.51-0.09,7.97-2.12c0.76-1.04,0.87-2.44,0.33-4.15c-0.02-0.06-0.05-0.1-0.07-0.16l0.01,0c-0.01-0.03-1.27-2.58-1.58-7.46
	c-0.11-1.7,0.41-4.03,0.91-6.28c0.24-1.07,0.47-2.14,0.66-3.19c13.1-3.05,28.61-0.58,33.48,5.4C96.77,24.58,95.92,27.73,93.91,32.98
	z"/>
</svg>
